<svg width="22" height="22" viewBox="0 0 22 22" fill="none" xmlns="http://www.w3.org/2000/svg">
<path d="M10.9987 2.83301C13.4298 2.83301 15.7614 3.79878 17.4805 5.51786C19.1996 7.23695 20.1654 9.56852 20.1654 11.9997C20.1654 14.4308 19.1996 16.7624 17.4805 18.4815C15.7614 20.2006 13.4298 21.1663 10.9987 21.1663C8.56755 21.1663 6.23597 20.2006 4.51689 18.4815C2.7978 16.7624 1.83203 14.4308 1.83203 11.9997C1.83203 9.56852 2.7978 7.23695 4.51689 5.51786C6.23597 3.79878 8.56755 2.83301 10.9987 2.83301ZM10.9987 4.66634C9.05378 4.66634 7.18852 5.43896 5.81325 6.81422C4.43798 8.18949 3.66536 10.0548 3.66536 11.9997C3.66536 13.9446 4.43798 15.8099 5.81325 17.1851C7.18852 18.5604 9.05378 19.333 10.9987 19.333C12.9436 19.333 14.8089 18.5604 16.1841 17.1851C17.5594 15.8099 18.332 13.9446 18.332 11.9997C18.332 10.0548 17.5594 8.18949 16.1841 6.81422C14.8089 5.43896 12.9436 4.66634 10.9987 4.66634ZM10.082 7.41634C10.2966 7.41627 10.5044 7.49146 10.6692 7.62881C10.834 7.76615 10.9454 7.95697 10.984 8.16801L10.9987 8.33301V11.9997H13.7487C13.9778 11.9993 14.1987 12.0846 14.368 12.2389C14.5372 12.3933 14.6426 12.6054 14.6633 12.8335C14.684 13.0616 14.6185 13.2893 14.4798 13.4715C14.3411 13.6538 14.1391 13.7775 13.9137 13.8183L13.7487 13.833H10.082C9.86749 13.8331 9.65971 13.7579 9.49489 13.6205C9.33007 13.4832 9.21865 13.2924 9.18003 13.0813L9.16536 12.9163V8.33301C9.16536 8.08989 9.26194 7.85674 9.43385 7.68483C9.60576 7.51292 9.83892 7.41634 10.082 7.41634Z" fill="#3D79F6"/>
</svg>
