<svg width="14" height="15" viewBox="0 0 14 15" fill="none" xmlns="http://www.w3.org/2000/svg">
<path opacity="0.73" d="M6.54762 0.952393C10.1639 0.952393 13.0952 3.88376 13.0952 7.50001C13.0952 11.1163 10.1639 14.0476 6.54762 14.0476C2.93137 14.0476 0 11.1163 0 7.50001C0 3.88376 2.93137 0.952393 6.54762 0.952393ZM6.54762 2.26192C5.15839 2.26192 3.82606 2.81379 2.84373 3.79612C1.86139 4.77845 1.30952 6.11078 1.30952 7.50001C1.30952 8.88924 1.86139 10.2216 2.84373 11.2039C3.82606 12.1862 5.15839 12.7381 6.54762 12.7381C7.93685 12.7381 9.26918 12.1862 10.2515 11.2039C11.2338 10.2216 11.7857 8.88924 11.7857 7.50001C11.7857 6.11078 11.2338 4.77845 10.2515 3.79612C9.26918 2.81379 7.93685 2.26192 6.54762 2.26192ZM6.54762 3.57144C6.70799 3.57146 6.86278 3.63034 6.98263 3.73691C7.10247 3.84348 7.17903 3.99032 7.1978 4.1496L7.20238 4.2262V7.22894L8.97482 9.00138C9.09225 9.11921 9.16043 9.27732 9.16551 9.4436C9.17058 9.60987 9.11218 9.77185 9.00216 9.89662C8.89214 10.0214 8.73875 10.0996 8.57314 10.1154C8.40754 10.1312 8.24214 10.0833 8.11054 9.98156L8.04899 9.92721L6.0847 7.96293C5.98294 7.86108 5.91758 7.72853 5.89875 7.58579L5.89286 7.50001V4.2262C5.89286 4.05255 5.96184 3.88601 6.08463 3.76322C6.20742 3.64042 6.37397 3.57144 6.54762 3.57144Z" fill="black"/>
</svg>
