<svg width="26" height="24" viewBox="0 0 26 24" fill="none" xmlns="http://www.w3.org/2000/svg">
<g clip-path="url(#clip0_2434_943)">
<path d="M18.9155 7.65311C18.4213 4.6552 15.7883 2.53394 13 1.24699C10.2111 2.53394 7.57809 4.6552 7.08448 7.65311H18.9155ZM22.3168 13.9113H3.68258V24H5.38113V19.2899C5.38113 19.1814 5.39672 19.0884 5.43151 18.9852C5.64923 18.3423 6.31977 17.8342 7.34238 17.3112C8.36438 17.8342 9.03493 18.3423 9.25264 18.9852C9.28743 19.0884 9.30302 19.1814 9.30302 19.2899V24H11.0388V19.2899C11.0388 19.1814 11.0543 19.0884 11.0891 18.9852C11.3069 18.3423 11.9774 17.8342 13 17.3112C14.022 17.8342 14.6926 18.3423 14.9103 18.9852C14.9451 19.0884 14.9606 19.1814 14.9606 19.2899V24H16.6964V19.2899C16.6964 19.1814 16.712 19.0884 16.7468 18.9852C16.9645 18.3423 17.635 17.8342 18.6576 17.3112C19.6796 17.8342 20.3502 18.3423 20.5679 18.9852C20.6033 19.0884 20.6183 19.1814 20.6183 19.2899V24H22.3168V13.9113ZM18.9827 13.337H17.0418V10.9504C17.0418 10.5043 16.6742 10.1388 16.225 10.1388C15.7757 10.1388 15.4087 10.5043 15.4087 10.9504V13.337H13.8163V10.9504C13.8163 10.5043 13.4486 10.1388 13 10.1388C12.5514 10.1388 12.1831 10.5043 12.1831 10.9504V13.337H10.5907V10.9504C10.5907 10.5043 10.2237 10.1388 9.77444 10.1388C9.32521 10.1388 8.95756 10.5043 8.95756 10.9504V13.337H7.0173V8.22741H18.9827V13.337ZM21.5047 8.22622H24.5755V5.94931H21.5047V8.22622ZM1.42385 8.22622H4.49467V5.94931H1.42385V8.22622ZM21.5047 5.37501H24.5755C26.7989 4.27293 25.0794 2.42063 23.0401 0.613655C21.0009 2.42063 19.2814 4.27293 21.5047 5.37501ZM1.42445 5.37501H4.49467C6.71802 4.27293 4.99848 2.42063 2.95926 0.613655C0.920046 2.42063 -0.798893 4.27293 1.42445 5.37501ZM26 8.80052H20.0803L20.8822 10.4858H25.1981L26 8.80052ZM5.91852 8.80052H0L0.801892 10.4858H5.11723L5.91852 8.80052Z" fill="black"/>
<path d="M13.6041 1.58871L13.0013 0L12.398 1.58871H13.6041ZM3.10634 24H1.42578V11.0601H4.496V13.337H3.10634V24ZM24.5769 11.0607V24H22.8957V13.337H21.5067V11.0601L24.5769 11.0607ZM5.03639 23.2259H20.9651V23.9994H5.03639V23.2259Z" fill="black"/>
</g>
<defs>
<clipPath id="clip0_2434_943">
<rect width="26" height="24" fill="white"/>
</clipPath>
</defs>
</svg>
