<svg width="22" height="22" viewBox="0 0 22 22" fill="none" xmlns="http://www.w3.org/2000/svg">
<path d="M11.6593 1.02417C10.3479 0.928713 9.03144 1.11672 7.79925 1.57542C6.56706 2.03411 5.44808 2.75274 4.51838 3.68244C3.58867 4.61214 2.87005 5.73112 2.41135 6.96331C1.95266 8.1955 1.76465 9.51201 1.86011 10.8233C2.19011 15.6725 6.42511 19.33 11.2834 19.33H14.6659C15.1701 19.33 15.5826 18.9175 15.5826 18.4133C15.5826 17.9092 15.1701 17.4967 14.6659 17.4967H11.3018C7.88261 17.4967 4.74761 15.2783 3.89511 11.9692C2.52927 6.6525 7.47927 1.69334 12.7959 3.06834C16.1143 3.91167 18.3326 7.04667 18.3326 10.4658V11.4742C18.3326 12.1983 17.6818 12.9133 16.9576 12.9133C16.2334 12.9133 15.5826 12.1983 15.5826 11.4742V10.3283C15.5826 8.0275 13.9509 5.95584 11.6776 5.635C10.9543 5.52745 10.2158 5.59424 9.52354 5.82981C8.83129 6.06538 8.20532 6.46291 7.69775 6.98931C7.19019 7.5157 6.81572 8.15573 6.60551 8.85611C6.39531 9.55649 6.35546 10.2969 6.48927 11.0158C6.65005 11.8821 7.05726 12.6835 7.6621 13.3241C8.26693 13.9647 9.0437 14.4173 9.89927 14.6275C11.5859 15.0217 13.1901 14.4808 14.2443 13.4083C15.0601 14.5267 16.6918 15.1133 18.1859 14.5175C19.4143 14.0317 20.1659 12.7758 20.1659 11.4558V10.4567C20.1659 5.58917 16.5084 1.35417 11.6593 1.02417ZM10.9993 12.9133C9.47761 12.9133 8.24927 11.685 8.24927 10.1633C8.24927 8.64167 9.47761 7.41334 10.9993 7.41334C12.5209 7.41334 13.7493 8.64167 13.7493 10.1633C13.7493 11.685 12.5209 12.9133 10.9993 12.9133Z" fill="#3D79F6"/>
</svg>
