<svg width="17" height="17" viewBox="0 0 17 17" fill="none" xmlns="http://www.w3.org/2000/svg">
<path fill-rule="evenodd" clip-rule="evenodd" d="M12.6063 9.93388C12.3012 9.7475 11.9422 9.66916 11.5871 9.71146C11.232 9.75376 10.9015 9.91424 10.6487 10.1671L9.8401 10.9762C7.62479 10.4306 6.26107 9.08016 5.76488 6.91L6.57823 6.09666C6.83108 5.84381 6.99156 5.51329 7.03386 5.15822C7.07616 4.80315 6.99782 4.44417 6.81145 4.139L5.51307 2.01294C5.3874 1.80709 5.21666 1.63245 5.0137 1.50217C4.81074 1.37189 4.58086 1.28937 4.34139 1.26083C4.10191 1.23229 3.85907 1.25847 3.63118 1.3374C3.40329 1.41633 3.19628 1.54595 3.02576 1.7165L1.78263 2.95963C1.53394 3.20829 1.35086 3.51479 1.24979 3.85164C1.14873 4.18849 1.13285 4.54516 1.20357 4.88966V4.89178C2.4196 10.6999 5.95879 14.2519 11.8445 15.5274L11.8461 15.5279C12.1922 15.6016 12.5513 15.5876 12.8906 15.4874C13.23 15.3871 13.5389 15.2036 13.7894 14.9537C14.1501 14.5983 14.6176 14.1308 15.0288 13.7196C15.1994 13.549 15.329 13.342 15.4079 13.1141C15.4868 12.8862 15.513 12.6434 15.4845 12.4039C15.4559 12.1645 15.3734 11.9346 15.2431 11.7316C15.1129 11.5287 14.9382 11.3579 14.7324 11.2323L12.6063 9.93388Z" fill="#3171F7"/>
</svg>
