<svg xmlns="http://www.w3.org/2000/svg" width="1554" height="408" fill="none"><mask id="a" width="1513" height="392" x="0" y="0" maskUnits="userSpaceOnUse" style="mask-type:alpha"><rect width="1513" height="392" fill="#F6F6F6" rx="19"/></mask><g mask="url(#a)"><rect width="1513" height="392" fill="#F6F6F6" rx="19"/><path fill="#EBEBEB" d="M222.08 170.616H120.908l44.964-69.106V80.627A5.617 5.617 0 0 1 171.494 75a5.62 5.62 0 0 1 5.623 5.627v20.902l44.963 69.106zm-73.075 33.741a5.62 5.62 0 0 1 5.623-5.627 5.62 5.62 0 0 1 5.622 5.627v16.88h22.492v-16.88a5.62 5.62 0 0 1 5.623-5.627 5.62 5.62 0 0 1 5.622 5.627v16.88h28.115V181.87H120.93v39.367h28.114v-16.88zM87.173 328.106c0-3.094-2.532-5.627-5.623-5.627s-5.623 2.533-5.623 5.627v28.133h11.246zm174.252-5.627c-3.091 0-5.623 2.533-5.623 5.627v28.133h11.246v-28.133c0-3.094-2.531-5.627-5.623-5.627m-89.948 151.885c-15.497 0-28.114 12.626-28.114 28.133V570h56.207v-67.503c0-15.507-12.617-28.133-28.114-28.133zm-95.548 95.613h56.208v-50.623H75.929zm163.004-213.759H104.026V238.097c0-3.093 2.531-5.626 5.622-5.626h123.664c3.092 0 5.623 2.533 5.623 5.626zm-22.491-61.874c0-24.808-20.173-44.995-44.964-44.995-24.79 0-44.963 20.187-44.963 44.995s20.173 44.994 44.963 44.994 44.964-20.187 44.964-44.994m-11.246 0c0 18.62-15.129 33.741-33.718 33.741-18.607 0-33.717-15.14-33.717-33.741 0-18.621 15.129-33.741 33.717-33.741 18.608 0 33.718 15.14 33.718 33.741m-28.114-16.881a5.617 5.617 0 0 0-5.623-5.626 5.617 5.617 0 0 0-5.623 5.626v14.56l-9.603 9.61c-2.203 2.204-2.203 5.762 0 7.947a5.59 5.59 0 0 0 3.981 1.644 5.62 5.62 0 0 0 3.98-1.644l11.246-11.253a5.6 5.6 0 0 0 1.642-3.983zM75.91 395.584h22.492v-11.253a5.62 5.62 0 0 1 5.622-5.627 5.62 5.62 0 0 1 5.623 5.627v11.253h22.492v-11.253a5.617 5.617 0 0 1 5.622-5.627 5.62 5.62 0 0 1 5.623 5.627v11.253h22.492v-11.253a5.617 5.617 0 0 1 5.622-5.627 5.62 5.62 0 0 1 5.623 5.627v11.253h22.492v-11.253a5.617 5.617 0 0 1 5.622-5.627 5.62 5.62 0 0 1 5.623 5.627v11.253h22.492v-11.253a5.617 5.617 0 0 1 5.622-5.627 5.62 5.62 0 0 1 5.623 5.627v11.253h22.492v-28.133l-191.14.038v28.134zm134.907 174.372h56.208v-50.623h-56.208zM75.91 406.84h191.12v101.242h-56.208v-5.627c0-21.714-17.641-39.367-39.34-39.367s-39.341 17.653-39.341 39.367v5.627H75.934V406.84zm157.38 33.741a5.62 5.62 0 0 0 5.622 5.627 5.62 5.62 0 0 0 5.623-5.627v-11.253a5.62 5.62 0 0 0-5.623-5.627 5.62 5.62 0 0 0-5.622 5.627zm-33.718 0a5.62 5.62 0 0 0 5.623 5.627 5.617 5.617 0 0 0 5.622-5.627v-11.253a5.617 5.617 0 0 0-5.622-5.627 5.62 5.62 0 0 0-5.623 5.627zm-33.718 0a5.62 5.62 0 0 0 5.623 5.627 5.62 5.62 0 0 0 5.623-5.627v-11.253a5.62 5.62 0 0 0-5.623-5.627 5.62 5.62 0 0 0-5.623 5.627zm-33.717 0a5.617 5.617 0 0 0 5.622 5.627 5.62 5.62 0 0 0 5.623-5.627v-11.253a5.62 5.62 0 0 0-5.623-5.627 5.617 5.617 0 0 0-5.622 5.627zm-33.718 0a5.62 5.62 0 0 0 5.623 5.627 5.62 5.62 0 0 0 5.622-5.627v-11.253a5.62 5.62 0 0 0-5.622-5.627 5.62 5.62 0 0 0-5.623 5.627zM42.21 418.074c0-3.093-2.531-5.626-5.623-5.626H8.474c-3.092 0-5.623 2.533-5.623 5.626v22.507H-19.64v-22.507c0-3.093-2.532-5.626-5.623-5.626h-28.114c-3.092 0-5.623 2.533-5.623 5.626v50.624H64.664v-28.134H42.172v-22.507zm-101.172 61.875H64.703v90.01l-118.04.039c-3.091 0-5.622-2.533-5.622-5.627zm89.948 39.367a5.62 5.62 0 0 0 5.623 5.627 5.62 5.62 0 0 0 5.623-5.627v-11.253a5.62 5.62 0 0 0-5.623-5.627 5.62 5.62 0 0 0-5.623 5.627zm-33.717 0a5.62 5.62 0 0 0 5.622 5.627 5.62 5.62 0 0 0 5.623-5.627v-11.253a5.62 5.62 0 0 0-5.623-5.627 5.62 5.62 0 0 0-5.622 5.627zm-33.718 0a5.62 5.62 0 0 0 5.623 5.627 5.62 5.62 0 0 0 5.622-5.627v-11.253a5.62 5.62 0 0 0-5.622-5.627 5.62 5.62 0 0 0-5.623 5.627zm432.824-106.869h-28.115c-3.091 0-5.622 2.533-5.622 5.626v22.507h-22.492v-22.507c0-3.093-2.531-5.626-5.623-5.626H306.41c-3.091 0-5.623 2.533-5.623 5.626v22.507h-22.491v28.134H401.96v-50.623c0-3.094-2.531-5.627-5.623-5.627zm-118.04 67.502H402v84.382c0 3.094-2.531 5.627-5.623 5.627h-118.04zm89.948 39.368a5.62 5.62 0 0 0 5.623 5.627 5.62 5.62 0 0 0 5.623-5.627v-11.253a5.62 5.62 0 0 0-5.623-5.627 5.62 5.62 0 0 0-5.623 5.627zm-33.717 0a5.617 5.617 0 0 0 5.622 5.627 5.62 5.62 0 0 0 5.623-5.627v-11.253a5.62 5.62 0 0 0-5.623-5.627 5.617 5.617 0 0 0-5.622 5.627zm-33.718 0a5.62 5.62 0 0 0 5.623 5.627 5.62 5.62 0 0 0 5.622-5.627v-11.253a5.62 5.62 0 0 0-5.622-5.627 5.62 5.62 0 0 0-5.623 5.627z"/><path fill="url(#b)" fill-rule="evenodd" d="M219.842 143.197c2.579 4.22 7.406 7.061 12.936 7.061 8.244 0 14.927-6.312 14.927-14.098 0-1.581-.276-3.101-.784-4.52 4.188 2.068 8.952 3.238 14.004 3.238 16.723 0 30.28-12.815 30.28-28.623 0-15.807-13.557-28.622-30.28-28.622-6.851 0-13.171 2.15-18.245 5.778C235.35 65.049 216.688 52 194.823 52c-19.479 0-36.416 10.356-45.063 25.599-5.113-3.73-11.523-5.948-18.481-5.948-16.723 0-30.279 12.815-30.279 28.623s13.556 28.622 30.279 28.622c6.805 0 13.085-2.121 18.141-5.703 8.537 15.576 25.665 26.209 45.403 26.209 9.087 0 17.621-2.254 25.019-6.206" clip-rule="evenodd"/></g><g fill-rule="evenodd" clip-path="url(#c)" clip-rule="evenodd"><path fill="url(#d)" d="M1327.64 236.059c3.71 6.37 10.81 10.677 18.96 10.677 12 0 21.72-9.327 21.72-20.832 0-2.542-.47-4.977-1.34-7.229 6.35 3.254 13.62 5.103 21.36 5.103 24.69 0 44.71-18.845 44.71-42.09s-20.02-42.091-44.71-42.091c-10.04 0-19.3 3.11-26.76 8.362-10.93-26.775-38.49-45.775-70.76-45.775-28.9 0-54.02 15.243-66.81 37.662-7.55-5.487-17.02-8.752-27.3-8.752-24.69 0-44.71 18.845-44.71 42.091 0 23.245 20.02 42.09 44.71 42.09 10.13 0 19.46-3.167 26.96-8.507 12.68 22.75 37.99 38.267 67.15 38.267 13.36 0 25.92-3.257 36.82-8.976"/><path fill="url(#e)" d="M1450.64 145.197c2.58 4.22 7.4 7.061 12.93 7.061 8.25 0 14.93-6.312 14.93-14.098 0-1.581-.28-3.101-.78-4.52 4.18 2.068 8.95 3.238 14 3.238 16.72 0 30.28-12.815 30.28-28.623 0-15.807-13.56-28.622-30.28-28.622-6.85 0-13.17 2.15-18.25 5.778-7.32-18.362-25.99-31.41-47.85-31.41-19.48 0-36.42 10.356-45.07 25.599-5.11-3.73-11.52-5.948-18.48-5.948-16.72 0-30.28 12.815-30.28 28.623s13.56 28.622 30.28 28.622c6.81 0 13.09-2.121 18.14-5.703 8.54 15.576 25.67 26.209 45.41 26.209 9.09 0 17.62-2.254 25.02-6.206"/></g><path fill="#EBEBEB" d="M1349.56 123c-.55-.03-1.09.027-1.61.169a35.86 35.86 0 0 0-19.3 12.773 35.9 35.9 0 0 0-7.5 21.916c0 16.658 11.45 30.672 26.87 34.654v8.812c-9.92 15.472-32.13 25.809-52.91 38.857-10.61 6.643-20.83 14.133-28.49 23.928a58.86 58.86 0 0 0-12.62 37.23c0 20.216 5.8 34.875 12.23 44.805h172.47c6.45-9.93 12.28-24.572 12.28-44.805a58.82 58.82 0 0 0-12.67-37.23c-7.65-9.795-17.85-17.285-28.44-23.928-20.76-13.031-42.97-23.351-52.9-38.806v-7.677a35.77 35.77 0 0 0 21.73-7.412 35.84 35.84 0 0 0 12.76-19.108c2.25-4.389-3.18-8.676-6.9-5.457a22.3 22.3 0 0 1-11.46 4.943c-4.2.525-8.48-.163-12.31-1.982a22.34 22.34 0 0 1-9.33-8.287 22.3 22.3 0 0 1-3.44-12.009c-.16-5.321 2.13-10.388 5.04-14.167 2.54-3.288.12-7.084-3.5-7.219m-82.13 232.125a13.52 13.52 0 0 0-9.46 3.983 13.56 13.56 0 0 0-3.95 9.489v17.895a4.49 4.49 0 0 0 1.29 3.175 4.5 4.5 0 0 0 3.16 1.333h188.03c.59.002 1.18-.113 1.72-.339a4.5 4.5 0 0 0 1.47-.976 4.52 4.52 0 0 0 1.31-3.193v-17.895a13.59 13.59 0 0 0-3.96-9.501 13.54 13.54 0 0 0-9.49-3.971z"/><path fill="url(#f)" fill-rule="evenodd" d="M1456.24 399.062c3.09 5.333 9 8.938 15.79 8.938 9.98 0 18.08-7.807 18.08-17.438 0-2.128-.4-4.166-1.12-6.051 5.28 2.724 11.34 4.271 17.78 4.271 20.56 0 37.23-15.774 37.23-35.232s-16.67-35.232-37.23-35.232c-8.35 0-16.06 2.603-22.27 6.999-9.11-22.413-32.05-38.317-58.92-38.317-24.06 0-44.98 12.759-55.63 31.526-6.28-4.593-14.17-7.326-22.72-7.326-20.56 0-37.23 15.774-37.23 35.232 0 19.459 16.67 35.233 37.23 35.233 8.43 0 16.2-2.651 22.44-7.121 10.56 19.043 31.63 32.032 55.91 32.032 11.13 0 21.58-2.727 30.66-7.514" clip-rule="evenodd"/><path fill="url(#g)" fill-rule="evenodd" d="M1558.72 323.107c2.14 3.522 6.15 5.893 10.75 5.893 6.84 0 12.4-5.267 12.4-11.765 0-1.32-.23-2.588-.66-3.773 3.48 1.727 7.44 2.703 11.64 2.703 13.89 0 25.15-10.694 25.15-23.887s-11.26-23.887-25.15-23.887c-5.69 0-10.94 1.796-15.16 4.822C1571.6 257.89 1556.1 247 1537.94 247c-16.18 0-30.25 8.643-37.44 21.364-4.24-3.113-9.57-4.964-15.35-4.964-13.89 0-25.15 10.695-25.15 23.887s11.26 23.887 25.15 23.887c5.65 0 10.87-1.771 15.07-4.76 7.09 12.999 21.32 21.873 37.72 21.873 7.55 0 14.64-1.881 20.78-5.18" clip-rule="evenodd"/><defs><linearGradient id="b" x1="196.102" x2="196.102" y1="123.953" y2="52" gradientUnits="userSpaceOnUse"><stop stop-color="#fff" stop-opacity="0"/><stop offset="1" stop-color="#fff"/></linearGradient><linearGradient id="d" x1="1292.52" x2="1292.52" y1="208.038" y2="102.184" gradientUnits="userSpaceOnUse"><stop stop-color="#fff" stop-opacity="0"/><stop offset="1" stop-color="#fff"/></linearGradient><linearGradient id="e" x1="1426.9" x2="1426.9" y1="125.953" y2="54" gradientUnits="userSpaceOnUse"><stop stop-color="#fff" stop-opacity="0"/><stop offset="1" stop-color="#fff"/></linearGradient><linearGradient id="f" x1="1427" x2="1427" y1="375.607" y2="287" gradientUnits="userSpaceOnUse"><stop stop-color="#fff" stop-opacity="0"/><stop offset="1" stop-color="#fff"/></linearGradient><linearGradient id="g" x1="1539" x2="1539" y1="307.048" y2="247" gradientUnits="userSpaceOnUse"><stop stop-color="#fff" stop-opacity="0"/><stop offset="1" stop-color="#fff"/></linearGradient><clipPath id="c"><path fill="#fff" d="M1152 54h370v154h-370z"/></clipPath></defs></svg>